<svg width="312" height="31" viewBox="0 0 312 31" fill="none" xmlns="http://www.w3.org/2000/svg">
<path d="M12.7614 30.5455V21.25H12.5909C12.3788 21.6742 12.072 22.125 11.6705 22.6023C11.2689 23.072 10.7386 23.4735 10.0795 23.8068C9.42045 24.1402 8.59091 24.3068 7.59091 24.3068C6.2197 24.3068 4.99242 23.9545 3.90909 23.25C2.82576 22.5455 1.9697 21.5227 1.34091 20.1818C0.712121 18.8409 0.397727 17.2121 0.397727 15.2955C0.397727 13.3561 0.715909 11.7197 1.35227 10.3864C1.99621 9.04545 2.86364 8.03409 3.95455 7.35227C5.04545 6.66288 6.26136 6.31818 7.60227 6.31818C8.625 6.31818 9.46591 6.49242 10.125 6.84091C10.7841 7.18182 11.3068 7.5947 11.6932 8.07955C12.0795 8.55682 12.3788 9.00758 12.5909 9.43182H12.8409V6.54545H16.8864V30.5455H12.7614ZM8.73864 20.9318C9.60985 20.9318 10.3523 20.697 10.9659 20.2273C11.5795 19.75 12.0455 19.0871 12.3636 18.2386C12.6818 17.3902 12.8409 16.4015 12.8409 15.2727C12.8409 14.1439 12.6818 13.1629 12.3636 12.3295C12.053 11.4962 11.5909 10.8485 10.9773 10.3864C10.3712 9.92424 9.625 9.69318 8.73864 9.69318C7.82197 9.69318 7.05682 9.93182 6.44318 10.4091C5.82955 10.8864 5.36742 11.5455 5.05682 12.3864C4.74621 13.2273 4.59091 14.1894 4.59091 15.2727C4.59091 16.3636 4.74621 17.3371 5.05682 18.1932C5.375 19.0417 5.84091 19.7121 6.45455 20.2045C7.07576 20.6894 7.83712 20.9318 8.73864 20.9318ZM28.7273 24.3409C27.0227 24.3409 25.5455 23.9659 24.2955 23.2159C23.0455 22.4659 22.0758 21.4167 21.3864 20.0682C20.7045 18.7197 20.3636 17.1439 20.3636 15.3409C20.3636 13.5379 20.7045 11.9583 21.3864 10.6023C22.0758 9.24621 23.0455 8.19318 24.2955 7.44318C25.5455 6.69318 27.0227 6.31818 28.7273 6.31818C30.4318 6.31818 31.9091 6.69318 33.1591 7.44318C34.4091 8.19318 35.375 9.24621 36.0568 10.6023C36.7462 11.9583 37.0909 13.5379 37.0909 15.3409C37.0909 17.1439 36.7462 18.7197 36.0568 20.0682C35.375 21.4167 34.4091 22.4659 33.1591 23.2159C31.9091 23.9659 30.4318 24.3409 28.7273 24.3409ZM28.75 21.0455C29.6742 21.0455 30.447 20.7917 31.0682 20.2841C31.6894 19.7689 32.1515 19.0795 32.4545 18.2159C32.7652 17.3523 32.9205 16.3902 32.9205 15.3295C32.9205 14.2614 32.7652 13.2955 32.4545 12.4318C32.1515 11.5606 31.6894 10.8674 31.0682 10.3523C30.447 9.83712 29.6742 9.57955 28.75 9.57955C27.803 9.57955 27.0152 9.83712 26.3864 10.3523C25.7652 10.8674 25.2992 11.5606 24.9886 12.4318C24.6856 13.2955 24.5341 14.2614 24.5341 15.3295C24.5341 16.3902 24.6856 17.3523 24.9886 18.2159C25.2992 19.0795 25.7652 19.7689 26.3864 20.2841C27.0152 20.7917 27.803 21.0455 28.75 21.0455ZM40.5824 24V6.54545H44.571V9.45455H44.7528C45.071 8.44697 45.6165 7.67045 46.3892 7.125C47.1695 6.57197 48.0597 6.29545 49.0597 6.29545C49.2869 6.29545 49.5407 6.30682 49.821 6.32954C50.1089 6.3447 50.3475 6.37121 50.5369 6.40909V10.1932C50.3627 10.1326 50.0862 10.0795 49.7074 10.0341C49.3362 9.98106 48.9763 9.95455 48.6278 9.95455C47.8778 9.95455 47.2036 10.1174 46.6051 10.4432C46.0142 10.7614 45.5483 11.2045 45.2074 11.7727C44.8665 12.3409 44.696 12.9962 44.696 13.7386V24H40.5824ZM62.9233 6.54545V9.72727H52.8892V6.54545H62.9233ZM55.3665 2.36364H59.4801V18.75C59.4801 19.303 59.5634 19.7273 59.7301 20.0227C59.9044 20.3106 60.1316 20.5076 60.4119 20.6136C60.6922 20.7197 61.0028 20.7727 61.3438 20.7727C61.6013 20.7727 61.8362 20.7538 62.0483 20.7159C62.268 20.678 62.4347 20.6439 62.5483 20.6136L63.2415 23.8295C63.0218 23.9053 62.7074 23.9886 62.2983 24.0795C61.8968 24.1705 61.4044 24.2235 60.821 24.2386C59.7907 24.2689 58.8627 24.1136 58.0369 23.7727C57.2112 23.4242 56.5559 22.8864 56.071 22.1591C55.5938 21.4318 55.3589 20.5227 55.3665 19.4318V2.36364ZM71.3864 24.3523C70.2803 24.3523 69.2841 24.1553 68.3977 23.7614C67.5189 23.3598 66.822 22.7689 66.3068 21.9886C65.7992 21.2083 65.5455 20.2462 65.5455 19.1023C65.5455 18.1174 65.7273 17.303 66.0909 16.6591C66.4545 16.0152 66.9508 15.5 67.5795 15.1136C68.2083 14.7273 68.9167 14.4356 69.7045 14.2386C70.5 14.0341 71.322 13.8864 72.1705 13.7955C73.1932 13.6894 74.0227 13.5947 74.6591 13.5114C75.2955 13.4205 75.7576 13.2841 76.0455 13.1023C76.3409 12.9129 76.4886 12.6212 76.4886 12.2273V12.1591C76.4886 11.303 76.2348 10.6402 75.7273 10.1705C75.2197 9.70076 74.4886 9.46591 73.5341 9.46591C72.5265 9.46591 71.7273 9.68561 71.1364 10.125C70.553 10.5644 70.1591 11.0833 69.9545 11.6818L66.1136 11.1364C66.4167 10.0758 66.9167 9.18939 67.6136 8.47727C68.3106 7.75757 69.1629 7.2197 70.1705 6.86364C71.178 6.5 72.2917 6.31818 73.5114 6.31818C74.3523 6.31818 75.1894 6.41667 76.0227 6.61364C76.8561 6.81061 77.6174 7.13636 78.3068 7.59091C78.9962 8.03788 79.5492 8.64773 79.9659 9.42045C80.3902 10.1932 80.6023 11.1591 80.6023 12.3182V24H76.6477V21.6023H76.5114C76.2614 22.0871 75.9091 22.5417 75.4545 22.9659C75.0076 23.3826 74.4432 23.7197 73.7614 23.9773C73.0871 24.2273 72.2955 24.3523 71.3864 24.3523ZM72.4545 21.3295C73.2803 21.3295 73.9962 21.1667 74.6023 20.8409C75.2083 20.5076 75.6742 20.0682 76 19.5227C76.3333 18.9773 76.5 18.3826 76.5 17.7386V15.6818C76.3712 15.7879 76.1515 15.8864 75.8409 15.9773C75.5379 16.0682 75.197 16.1477 74.8182 16.2159C74.4394 16.2841 74.0644 16.3447 73.6932 16.3977C73.322 16.4508 73 16.4962 72.7273 16.5341C72.1136 16.6174 71.5644 16.7538 71.0795 16.9432C70.5947 17.1326 70.2121 17.3977 69.9318 17.7386C69.6515 18.072 69.5114 18.5038 69.5114 19.0341C69.5114 19.7917 69.7879 20.3636 70.3409 20.75C70.8939 21.1364 71.5985 21.3295 72.4545 21.3295ZM88.8523 0.727272V24H84.7386V0.727272H88.8523Z" fill="#09B6E8"/>
<path d="M105.207 24V25.9091H90.9119V24H105.207ZM114.702 6.54545V8.30682H106.372V6.54545H114.702ZM108.974 2.36364H111.009V19.4432C111.009 20.1705 111.134 20.7424 111.384 21.1591C111.634 21.5682 111.959 21.8598 112.361 22.0341C112.762 22.2008 113.19 22.2841 113.645 22.2841C113.91 22.2841 114.137 22.2689 114.327 22.2386C114.516 22.2008 114.683 22.1629 114.827 22.125L115.259 23.9545C115.062 24.0303 114.819 24.0985 114.531 24.1591C114.243 24.2273 113.887 24.2614 113.463 24.2614C112.721 24.2614 112.005 24.0985 111.315 23.7727C110.634 23.447 110.073 22.9621 109.634 22.3182C109.194 21.6742 108.974 20.875 108.974 19.9205V2.36364ZM119.295 24V6.54545H121.261V9.22727H121.409C121.758 8.34848 122.364 7.64015 123.227 7.10227C124.098 6.55682 125.083 6.28409 126.182 6.28409C126.348 6.28409 126.534 6.28788 126.739 6.29545C126.943 6.30303 127.114 6.31061 127.25 6.31818V8.375C127.159 8.35985 127 8.33712 126.773 8.30682C126.545 8.27651 126.299 8.26136 126.034 8.26136C125.125 8.26136 124.314 8.45455 123.602 8.84091C122.898 9.2197 122.341 9.74621 121.932 10.4205C121.523 11.0947 121.318 11.8636 121.318 12.7273V24H119.295ZM135.577 24.3977C134.524 24.3977 133.562 24.1932 132.69 23.7841C131.819 23.3674 131.126 22.7689 130.611 21.9886C130.096 21.2008 129.838 20.2462 129.838 19.125C129.838 18.2614 130.001 17.5341 130.327 16.9432C130.652 16.3523 131.115 15.8674 131.713 15.4886C132.312 15.1098 133.02 14.8106 133.838 14.5909C134.656 14.3712 135.558 14.2008 136.543 14.0795C137.52 13.9583 138.346 13.8523 139.02 13.7614C139.702 13.6705 140.221 13.5265 140.577 13.3295C140.933 13.1326 141.111 12.8144 141.111 12.375V11.9659C141.111 10.7765 140.755 9.84091 140.043 9.15909C139.338 8.4697 138.323 8.125 136.997 8.125C135.74 8.125 134.713 8.40152 133.918 8.95455C133.13 9.50758 132.577 10.1591 132.259 10.9091L130.338 10.2159C130.732 9.26136 131.277 8.5 131.974 7.93182C132.671 7.35606 133.452 6.94318 134.315 6.69318C135.179 6.43561 136.054 6.30682 136.94 6.30682C137.607 6.30682 138.3 6.39394 139.02 6.56818C139.747 6.74242 140.421 7.04545 141.043 7.47727C141.664 7.90151 142.168 8.49621 142.554 9.26136C142.94 10.0189 143.134 10.9811 143.134 12.1477V24H141.111V21.2386H140.986C140.743 21.7538 140.384 22.2538 139.906 22.7386C139.429 23.2235 138.83 23.6212 138.111 23.9318C137.391 24.2424 136.546 24.3977 135.577 24.3977ZM135.849 22.5455C136.925 22.5455 137.857 22.3068 138.645 21.8295C139.433 21.3523 140.039 20.7197 140.463 19.9318C140.895 19.1364 141.111 18.2614 141.111 17.3068V14.7841C140.959 14.928 140.705 15.0568 140.349 15.1705C140.001 15.2841 139.596 15.3864 139.134 15.4773C138.679 15.5606 138.224 15.6326 137.77 15.6932C137.315 15.7538 136.906 15.8068 136.543 15.8523C135.558 15.9735 134.717 16.1629 134.02 16.4205C133.323 16.678 132.789 17.0341 132.418 17.4886C132.046 17.9356 131.861 18.5114 131.861 19.2159C131.861 20.2765 132.24 21.0985 132.997 21.6818C133.755 22.2576 134.705 22.5455 135.849 22.5455ZM154.798 24.3636C153.366 24.3636 152.113 23.9848 151.037 23.2273C149.961 22.4697 149.12 21.4129 148.514 20.0568C147.916 18.7008 147.616 17.1212 147.616 15.3182C147.616 13.5227 147.916 11.9508 148.514 10.6023C149.12 9.24621 149.965 8.19318 151.048 7.44318C152.132 6.68561 153.393 6.30682 154.832 6.30682C155.893 6.30682 156.776 6.49621 157.48 6.875C158.185 7.24621 158.749 7.70833 159.173 8.26136C159.598 8.81439 159.927 9.35227 160.162 9.875H160.344V0.727272H162.378V24H160.401V20.7614H160.162C159.927 21.2917 159.594 21.8371 159.162 22.3977C158.73 22.9508 158.158 23.4167 157.446 23.7955C156.741 24.1742 155.859 24.3636 154.798 24.3636ZM155.037 22.5114C156.166 22.5114 157.128 22.2045 157.923 21.5909C158.719 20.9697 159.325 20.1174 159.741 19.0341C160.166 17.9432 160.378 16.6932 160.378 15.2841C160.378 13.8902 160.17 12.6591 159.753 11.5909C159.336 10.5152 158.73 9.67424 157.935 9.06818C157.139 8.45455 156.173 8.14773 155.037 8.14773C153.87 8.14773 152.885 8.46591 152.082 9.10227C151.287 9.73106 150.681 10.5833 150.264 11.6591C149.855 12.7348 149.651 13.9432 149.651 15.2841C149.651 16.6402 149.859 17.8636 150.276 18.9545C150.692 20.0455 151.298 20.9129 152.094 21.5568C152.897 22.1932 153.878 22.5114 155.037 22.5114ZM168.162 24V6.54545H170.196V24H168.162ZM169.196 3.54545C168.779 3.54545 168.423 3.4053 168.128 3.125C167.832 2.83712 167.685 2.49242 167.685 2.09091C167.685 1.68939 167.832 1.34848 168.128 1.06818C168.423 0.780302 168.779 0.636362 169.196 0.636362C169.613 0.636362 169.969 0.780302 170.264 1.06818C170.56 1.34848 170.707 1.68939 170.707 2.09091C170.707 2.49242 170.56 2.83712 170.264 3.125C169.969 3.4053 169.613 3.54545 169.196 3.54545ZM177.568 13.0909V24H175.545V6.54545H177.511V9.28409H177.693C178.102 8.39015 178.739 7.67424 179.602 7.13636C180.473 6.59091 181.549 6.31818 182.83 6.31818C184.004 6.31818 185.034 6.56439 185.92 7.05682C186.814 7.54167 187.508 8.25758 188 9.20455C188.5 10.1515 188.75 11.3144 188.75 12.6932V24H186.727V12.8182C186.727 11.3864 186.326 10.2538 185.523 9.42045C184.727 8.58712 183.659 8.17045 182.318 8.17045C181.402 8.17045 180.587 8.36742 179.875 8.76136C179.163 9.1553 178.598 9.72348 178.182 10.4659C177.773 11.2008 177.568 12.0758 177.568 13.0909ZM200.736 30.9091C199.546 30.9091 198.505 30.7538 197.611 30.4432C196.717 30.1402 195.963 29.7235 195.349 29.1932C194.736 28.6629 194.259 28.0682 193.918 27.4091L195.577 26.3182C195.827 26.7576 196.16 27.1894 196.577 27.6136C197.001 28.0379 197.55 28.3902 198.224 28.6705C198.906 28.9508 199.743 29.0909 200.736 29.0909C202.281 29.0909 203.527 28.7045 204.474 27.9318C205.429 27.1591 205.906 25.9583 205.906 24.3295V20.3977H205.724C205.49 20.928 205.152 21.4583 204.713 21.9886C204.274 22.5114 203.698 22.947 202.986 23.2955C202.281 23.6439 201.406 23.8182 200.361 23.8182C198.967 23.8182 197.728 23.4735 196.645 22.7841C195.569 22.0947 194.721 21.1098 194.099 19.8295C193.486 18.5417 193.179 17.0076 193.179 15.2273C193.179 13.4621 193.478 11.9091 194.077 10.5682C194.683 9.22727 195.527 8.18182 196.611 7.43182C197.694 6.68182 198.955 6.30682 200.395 6.30682C201.463 6.30682 202.349 6.49621 203.054 6.875C203.759 7.24621 204.323 7.70833 204.747 8.26136C205.179 8.81439 205.516 9.35227 205.759 9.875H205.963V6.54545H207.94V24.4545C207.94 25.9318 207.626 27.1477 206.997 28.1023C206.368 29.0568 205.512 29.7614 204.429 30.2159C203.346 30.678 202.115 30.9091 200.736 30.9091ZM200.599 21.9659C201.721 21.9659 202.679 21.697 203.474 21.1591C204.27 20.6136 204.88 19.8333 205.304 18.8182C205.728 17.803 205.94 16.5947 205.94 15.1932C205.94 13.8295 205.732 12.6212 205.315 11.5682C204.899 10.5076 204.293 9.67424 203.497 9.06818C202.709 8.45455 201.743 8.14773 200.599 8.14773C199.433 8.14773 198.448 8.46212 197.645 9.09091C196.842 9.7197 196.236 10.5682 195.827 11.6364C195.418 12.697 195.213 13.8826 195.213 15.1932C195.213 16.5265 195.421 17.7045 195.838 18.7273C196.255 19.7424 196.865 20.5379 197.668 21.1136C198.471 21.6818 199.448 21.9659 200.599 21.9659ZM225.957 24V25.9091H211.662V24H225.957ZM230.045 30.5455V6.54545H232.011V9.875H232.25C232.492 9.35227 232.826 8.81818 233.25 8.27273C233.674 7.7197 234.235 7.25379 234.932 6.875C235.636 6.49621 236.523 6.30682 237.591 6.30682C239.03 6.30682 240.288 6.68561 241.364 7.44318C242.447 8.19318 243.288 9.24621 243.886 10.6023C244.492 11.9508 244.795 13.5227 244.795 15.3182C244.795 17.1212 244.492 18.7008 243.886 20.0568C243.288 21.4129 242.447 22.4697 241.364 23.2273C240.288 23.9848 239.038 24.3636 237.614 24.3636C236.561 24.3636 235.678 24.1742 234.966 23.7955C234.261 23.4167 233.689 22.9508 233.25 22.3977C232.818 21.8371 232.485 21.2917 232.25 20.7614H232.068V30.5455H230.045ZM232.045 15.2841C232.045 16.6932 232.254 17.9432 232.67 19.0341C233.095 20.1174 233.701 20.9697 234.489 21.5909C235.284 22.2045 236.246 22.5114 237.375 22.5114C238.534 22.5114 239.511 22.1932 240.307 21.5568C241.11 20.9129 241.72 20.0455 242.136 18.9545C242.561 17.8636 242.773 16.6402 242.773 15.2841C242.773 13.9432 242.564 12.7348 242.148 11.6591C241.739 10.5833 241.133 9.73106 240.33 9.10227C239.527 8.46591 238.542 8.14773 237.375 8.14773C236.239 8.14773 235.273 8.45455 234.477 9.06818C233.682 9.67424 233.076 10.5152 232.659 11.5909C232.25 12.6591 232.045 13.8902 232.045 15.2841ZM256.017 24.3636C254.509 24.3636 253.176 23.9811 252.017 23.2159C250.866 22.4508 249.964 21.3939 249.312 20.0455C248.661 18.6894 248.335 17.125 248.335 15.3523C248.335 13.5644 248.661 11.9924 249.312 10.6364C249.964 9.27273 250.866 8.21212 252.017 7.45454C253.176 6.68939 254.509 6.30682 256.017 6.30682C257.525 6.30682 258.854 6.68939 260.006 7.45454C261.157 8.2197 262.059 9.2803 262.71 10.6364C263.369 11.9924 263.699 13.5644 263.699 15.3523C263.699 17.125 263.373 18.6894 262.722 20.0455C262.07 21.3939 261.165 22.4508 260.006 23.2159C258.854 23.9811 257.525 24.3636 256.017 24.3636ZM256.017 22.5114C257.229 22.5114 258.256 22.1856 259.097 21.5341C259.938 20.8826 260.574 20.0152 261.006 18.9318C261.445 17.8485 261.665 16.6553 261.665 15.3523C261.665 14.0492 261.445 12.8523 261.006 11.7614C260.574 10.6705 259.938 9.79545 259.097 9.13636C258.256 8.47727 257.229 8.14773 256.017 8.14773C254.813 8.14773 253.786 8.47727 252.938 9.13636C252.097 9.79545 251.456 10.6705 251.017 11.7614C250.585 12.8523 250.369 14.0492 250.369 15.3523C250.369 16.6553 250.585 17.8485 251.017 18.9318C251.456 20.0152 252.097 20.8826 252.938 21.5341C253.778 22.1856 254.805 22.5114 256.017 22.5114ZM268.139 24V6.54545H270.105V9.22727H270.253C270.601 8.34848 271.207 7.64015 272.071 7.10227C272.942 6.55682 273.927 6.28409 275.026 6.28409C275.192 6.28409 275.378 6.28788 275.582 6.29545C275.787 6.30303 275.957 6.31061 276.094 6.31818V8.375C276.003 8.35985 275.844 8.33712 275.616 8.30682C275.389 8.27651 275.143 8.26136 274.878 8.26136C273.969 8.26136 273.158 8.45455 272.446 8.84091C271.741 9.2197 271.185 9.74621 270.776 10.4205C270.366 11.0947 270.162 11.8636 270.162 12.7273V24H268.139ZM287.514 6.54545V8.30682H279.185V6.54545H287.514ZM281.787 2.36364H283.821V19.4432C283.821 20.1705 283.946 20.7424 284.196 21.1591C284.446 21.5682 284.772 21.8598 285.173 22.0341C285.575 22.2008 286.003 22.2841 286.457 22.2841C286.723 22.2841 286.95 22.2689 287.139 22.2386C287.329 22.2008 287.495 22.1629 287.639 22.125L288.071 23.9545C287.874 24.0303 287.632 24.0985 287.344 24.1591C287.056 24.2273 286.7 24.2614 286.276 24.2614C285.533 24.2614 284.817 24.0985 284.128 23.7727C283.446 23.447 282.885 22.9621 282.446 22.3182C282.007 21.6742 281.787 20.875 281.787 19.9205V2.36364ZM296.983 24.3977C295.93 24.3977 294.968 24.1932 294.097 23.7841C293.225 23.3674 292.532 22.7689 292.017 21.9886C291.502 21.2008 291.244 20.2462 291.244 19.125C291.244 18.2614 291.407 17.5341 291.733 16.9432C292.059 16.3523 292.521 15.8674 293.119 15.4886C293.718 15.1098 294.426 14.8106 295.244 14.5909C296.063 14.3712 296.964 14.2008 297.949 14.0795C298.926 13.9583 299.752 13.8523 300.426 13.7614C301.108 13.6705 301.627 13.5265 301.983 13.3295C302.339 13.1326 302.517 12.8144 302.517 12.375V11.9659C302.517 10.7765 302.161 9.84091 301.449 9.15909C300.744 8.4697 299.729 8.125 298.403 8.125C297.146 8.125 296.119 8.40152 295.324 8.95455C294.536 9.50758 293.983 10.1591 293.665 10.9091L291.744 10.2159C292.138 9.26136 292.684 8.5 293.381 7.93182C294.078 7.35606 294.858 6.94318 295.722 6.69318C296.585 6.43561 297.46 6.30682 298.347 6.30682C299.013 6.30682 299.706 6.39394 300.426 6.56818C301.153 6.74242 301.828 7.04545 302.449 7.47727C303.07 7.90151 303.574 8.49621 303.96 9.26136C304.347 10.0189 304.54 10.9811 304.54 12.1477V24H302.517V21.2386H302.392C302.15 21.7538 301.79 22.2538 301.312 22.7386C300.835 23.2235 300.237 23.6212 299.517 23.9318C298.797 24.2424 297.953 24.3977 296.983 24.3977ZM297.256 22.5455C298.331 22.5455 299.263 22.3068 300.051 21.8295C300.839 21.3523 301.445 20.7197 301.869 19.9318C302.301 19.1364 302.517 18.2614 302.517 17.3068V14.7841C302.366 14.928 302.112 15.0568 301.756 15.1705C301.407 15.2841 301.002 15.3864 300.54 15.4773C300.085 15.5606 299.631 15.6326 299.176 15.6932C298.722 15.7538 298.312 15.8068 297.949 15.8523C296.964 15.9735 296.123 16.1629 295.426 16.4205C294.729 16.678 294.195 17.0341 293.824 17.4886C293.453 17.9356 293.267 18.5114 293.267 19.2159C293.267 20.2765 293.646 21.0985 294.403 21.6818C295.161 22.2576 296.112 22.5455 297.256 22.5455ZM311.943 0.727272V24H309.92V0.727272H311.943Z" fill="white"/>
</svg>
